<svg width="50" height="50" viewBox="0 0 68 63" fill="none" xmlns="http://www.w3.org/2000/svg">
<path d="M0 8.25C0 7.22229 0.447767 6.23666 1.2448 5.50996C2.04183 4.78326 3.12283 4.375 4.25 4.375H63.75C64.8772 4.375 65.9582 4.78326 66.7552 5.50996C67.5522 6.23666 68 7.22229 68 8.25V16C68 17.0277 67.5522 18.0133 66.7552 18.74C65.9582 19.4667 64.8772 19.875 63.75 19.875V48.9375C63.75 51.5068 62.6306 53.9708 60.638 55.7876C58.6454 57.6044 55.9429 58.625 53.125 58.625H14.875C12.0571 58.625 9.35456 57.6044 7.36199 55.7876C5.36942 53.9708 4.25 51.5068 4.25 48.9375V19.875C3.12283 19.875 2.04183 19.4667 1.2448 18.74C0.447767 18.0133 0 17.0277 0 16V8.25ZM8.5 19.875V48.9375C8.5 50.4791 9.17165 51.9575 10.3672 53.0476C11.5627 54.1376 13.1842 54.75 14.875 54.75H53.125C54.8158 54.75 56.4373 54.1376 57.6328 53.0476C58.8284 51.9575 59.5 50.4791 59.5 48.9375V19.875H8.5ZM63.75 8.25H4.25V16H63.75V8.25ZM21.25 29.5625C21.25 29.0486 21.4739 28.5558 21.8724 28.1925C22.2709 27.8291 22.8114 27.625 23.375 27.625H44.625C45.1886 27.625 45.7291 27.8291 46.1276 28.1925C46.5261 28.5558 46.75 29.0486 46.75 29.5625C46.75 30.0764 46.5261 30.5692 46.1276 30.9325C45.7291 31.2959 45.1886 31.5 44.625 31.5H23.375C22.8114 31.5 22.2709 31.2959 21.8724 30.9325C21.4739 30.5692 21.25 30.0764 21.25 29.5625Z" fill="white"/>
</svg>
