<svg width="32" height="32" viewBox="0 0 32 32" fill="none" xmlns="http://www.w3.org/2000/svg">
<path d="M5.04186 7.03041C5.82975 5.19199 7.63744 4 9.63758 4H22.3624C24.3626 4 26.1702 5.19198 26.9581 7.0304L28.5419 10.7259C28.6923 11.0768 28.9622 11.3631 29.3037 11.5338C30.3012 12.0326 31.0126 12.9639 31.2313 14.0576L31.9029 17.4155C31.9675 17.7384 32 18.0668 32 18.3961V19.2221C32 20.85 31.2193 22.3076 30 23.2171V27C30 27.5523 29.5523 28 29 28H25C24.4477 28 24 27.5523 24 27V24.324C21.4167 24.42 18.5108 24.5 16 24.5C13.4892 24.5 10.5833 24.42 8 24.324V27C8 27.5523 7.55228 28 7 28H3C2.44772 28 2 27.5523 2 27V23.2171C0.780662 22.3076 0 20.85 0 19.2221V18.3961C0 18.0668 0.0325235 17.7384 0.0970966 17.4155L0.768683 14.0576C0.987406 12.964 1.69879 12.0326 2.69632 11.5338C3.03778 11.3631 3.30767 11.0768 3.45806 10.7259L5.04186 7.03041ZM6 20C7.10457 20 8 19.1046 8 18C8 16.8954 7.10457 16 6 16C4.89543 16 4 16.8954 4 18C4 19.1046 4.89543 20 6 20ZM26 20C27.1046 20 28 19.1046 28 18C28 16.8954 27.1046 16 26 16C24.8954 16 24 16.8954 24 18C24 19.1046 24.8954 20 26 20ZM12 16C10.8954 16 10 16.8954 10 18C10 19.1046 10.8954 20 12 20H20C21.1046 20 22 19.1046 22 18C22 16.8954 21.1046 16 20 16H12ZM5.81136 10.3772C5.45916 11.0816 6.02187 11.9039 6.80689 11.8407C8.62412 11.6943 13.5064 11.5 16 11.5C18.4936 11.5 23.3758 11.6943 25.1931 11.8407C25.9781 11.9039 26.5408 11.0816 26.1886 10.3772L24.2764 6.55279C24.107 6.214 23.7607 6 23.3819 6H8.61801C8.23923 6 7.89297 6.214 7.72358 6.55279L5.81136 10.3772Z" fill="black"/>
</svg>
