<svg width="40" height="40" viewBox="0 0 40 40" fill="none" xmlns="http://www.w3.org/2000/svg">
<path d="M0 1.33333C0 0.596954 0.596954 0 1.33333 0H5.33333C5.94516 0 6.47847 0.416396 6.62685 1.00995L7.7077 5.33333H38.6667C39.0633 5.33333 39.4394 5.50993 39.6927 5.81515C39.946 6.12038 40.0503 6.52253 39.9772 6.91238L35.9772 28.2457C35.8589 28.8763 35.3083 29.3333 34.6667 29.3333H32H13.3333H10.6667C10.025 29.3333 9.47441 28.8763 9.35617 28.2457L5.3635 6.95147L4.2923 2.66667H1.33333C0.596954 2.66667 0 2.06971 0 1.33333ZM13.3333 29.3333C10.3878 29.3333 8 31.7211 8 34.6667C8 37.6122 10.3878 40 13.3333 40C16.2788 40 18.6667 37.6122 18.6667 34.6667C18.6667 31.7211 16.2788 29.3333 13.3333 29.3333ZM32 29.3333C29.0545 29.3333 26.6667 31.7211 26.6667 34.6667C26.6667 37.6122 29.0545 40 32 40C34.9455 40 37.3333 37.6122 37.3333 34.6667C37.3333 31.7211 34.9455 29.3333 32 29.3333ZM13.3333 32C14.8061 32 16 33.1939 16 34.6667C16 36.1394 14.8061 37.3333 13.3333 37.3333C11.8606 37.3333 10.6667 36.1394 10.6667 34.6667C10.6667 33.1939 11.8606 32 13.3333 32ZM32 32C33.4728 32 34.6667 33.1939 34.6667 34.6667C34.6667 36.1394 33.4728 37.3333 32 37.3333C30.5272 37.3333 29.3333 36.1394 29.3333 34.6667C29.3333 33.1939 30.5272 32 32 32Z" fill="white"/>
</svg>
