<svg width="53" height="50" viewBox="0 0 53 50" fill="none" xmlns="http://www.w3.org/2000/svg">
<path fill-rule="evenodd" clip-rule="evenodd" d="M35.6402 22.3326C36.2814 22.9428 36.2814 23.9322 35.6402 24.5424L25.789 33.9174C25.4811 34.2104 25.0635 34.375 24.628 34.375C24.1926 34.375 23.7749 34.2104 23.467 33.9174L18.5414 29.2299C17.9002 28.6197 17.9002 27.6303 18.5414 27.0201C19.1826 26.41 20.2222 26.41 20.8634 27.0201L24.628 30.6028L33.3182 22.3326C33.9594 21.7225 34.999 21.7225 35.6402 22.3326Z" fill="white"/>
<path d="M13.1349 4.6875H9.85115C6.22404 4.6875 3.28369 7.48572 3.28369 10.9375V43.75C3.28369 47.2018 6.22405 50 9.85115 50H42.6885C46.3156 50 49.2559 47.2018 49.2559 43.75V10.9375C49.2559 7.48572 46.3156 4.6875 42.6885 4.6875H39.4047V7.8125H42.6885C44.502 7.8125 45.9722 9.21161 45.9722 10.9375V43.75C45.9722 45.4759 44.502 46.875 42.6885 46.875H9.85115C8.0376 46.875 6.56742 45.4759 6.56742 43.75V10.9375C6.56742 9.21161 8.0376 7.8125 9.85115 7.8125H13.1349V4.6875Z" fill="white"/>
<path d="M31.1954 3.125C32.1022 3.125 32.8373 3.82456 32.8373 4.6875V7.8125C32.8373 8.67544 32.1022 9.375 31.1954 9.375H21.3442C20.4374 9.375 19.7023 8.67544 19.7023 7.8125V4.6875C19.7023 3.82456 20.4374 3.125 21.3442 3.125H31.1954ZM21.3442 0C18.6239 0 16.4186 2.09867 16.4186 4.6875V7.8125C16.4186 10.4013 18.6239 12.5 21.3442 12.5H31.1954C33.9157 12.5 36.121 10.4013 36.121 7.8125V4.6875C36.121 2.09867 33.9157 0 31.1954 0H21.3442Z" fill="white"/>
</svg>
