<svg width="50" height="50" viewBox="0 0 68 63" fill="none" xmlns="http://www.w3.org/2000/svg">
<path d="M0 16C0 11.7198 3.80558 8.25 8.5 8.25H59.5C64.1944 8.25 68 11.7198 68 16V47C68 51.2802 64.1944 54.75 59.5 54.75H8.5C3.80558 54.75 0 51.2802 0 47V16ZM8.5 12.125C6.15279 12.125 4.25 13.8599 4.25 16V19.875H63.75V16C63.75 13.8599 61.8472 12.125 59.5 12.125H8.5ZM63.75 27.625H4.25V47C4.25 49.1401 6.15279 50.875 8.5 50.875H59.5C61.8472 50.875 63.75 49.1401 63.75 47V27.625Z" fill="white"/>
<path d="M8.5 39.25C8.5 37.1099 10.4028 35.375 12.75 35.375H17C19.3472 35.375 21.25 37.1099 21.25 39.25V43.125C21.25 45.2651 19.3472 47 17 47H12.75C10.4028 47 8.5 45.2651 8.5 43.125V39.25Z" fill="white"/>
</svg>
