<svg width="50" height="50" viewBox="0 0 50 50" fill="none" xmlns="http://www.w3.org/2000/svg">
<path d="M50 25C50 38.8071 38.8071 50 25 50C11.1929 50 0 38.8071 0 25C0 11.1929 11.1929 0 25 0C38.8071 0 50 11.1929 50 25ZM25 12.5C23.3268 12.5 22.0195 13.9446 22.1859 15.6095L23.282 26.5703C23.3703 27.4529 24.113 28.125 25 28.125C25.887 28.125 26.6297 27.4529 26.718 26.5703L27.8141 15.6095C27.9805 13.9446 26.6732 12.5 25 12.5ZM25.0048 31.25C23.2789 31.25 21.8798 32.6491 21.8798 34.375C21.8798 36.1009 23.2789 37.5 25.0048 37.5C26.7307 37.5 28.1298 36.1009 28.1298 34.375C28.1298 32.6491 26.7307 31.25 25.0048 31.25Z" fill="white"/>
</svg>
