<svg width="50" height="50" viewBox="0 0 68 63" fill="none" xmlns="http://www.w3.org/2000/svg">
<path d="M51.7045 35.1416C49.4775 39.2558 46.463 43.3579 43.3745 47.0389C40.2956 50.7084 37.2063 53.8851 34.8827 56.1468C34.5739 56.4474 34.279 56.7313 34 56.9978C33.721 56.7313 33.4261 56.4474 33.1173 56.1468C30.7937 53.8851 27.7044 50.7084 24.6255 47.0389C21.537 43.3579 18.5226 39.2558 16.2955 35.1416C14.0454 30.9849 12.75 27.0899 12.75 23.75C12.75 13.0495 22.2639 4.375 34 4.375C45.7361 4.375 55.25 13.0495 55.25 23.75C55.25 27.0899 53.9546 30.9849 51.7045 35.1416ZM34 62.5C34 62.5 59.5 40.4656 59.5 23.75C59.5 10.9094 48.0833 0.5 34 0.5C19.9167 0.5 8.5 10.9094 8.5 23.75C8.5 40.4656 34 62.5 34 62.5Z" fill="white"/>
<path d="M34 31.5C29.3056 31.5 25.5 28.0302 25.5 23.75C25.5 19.4698 29.3056 16 34 16C38.6944 16 42.5 19.4698 42.5 23.75C42.5 28.0302 38.6944 31.5 34 31.5ZM34 35.375C41.0416 35.375 46.75 30.1703 46.75 23.75C46.75 17.3297 41.0416 12.125 34 12.125C26.9584 12.125 21.25 17.3297 21.25 23.75C21.25 30.1703 26.9584 35.375 34 35.375Z" fill="white"/>
</svg>
