<svg width="50" height="50" viewBox="0 0 68 63" fill="none" xmlns="http://www.w3.org/2000/svg">
<path fill-rule="evenodd" clip-rule="evenodd" d="M34 0.5C40.0116 0.5 45.7769 2.13303 50.0278 5.03984C54.2786 7.94666 56.6667 11.8891 56.6667 16V23.9438C59.8665 24.3904 62.7425 25.5794 64.8077 27.3094C66.8729 29.0394 68.0007 31.2042 68 33.4375V52.8125C68 55.3818 66.5074 57.8458 63.8507 59.6626C61.1939 61.4794 57.5906 62.5 53.8333 62.5H14.1667C10.4094 62.5 6.80609 61.4794 4.14932 59.6626C1.49256 57.8458 2.95314e-07 55.3818 2.95314e-07 52.8125V33.4375C-0.00066626 31.2042 1.12705 29.0394 3.1923 27.3094C5.25755 25.5794 8.13347 24.3904 11.3333 23.9438V16C11.3333 11.8891 13.7214 7.94666 17.9722 5.03984C22.2231 2.13303 27.9884 0.5 34 0.5ZM14.1667 27.625C11.9123 27.625 9.75032 28.2374 8.15626 29.3274C6.5622 30.4175 5.66667 31.8959 5.66667 33.4375V52.8125C5.66667 54.3541 6.5622 55.8325 8.15626 56.9226C9.75032 58.0126 11.9123 58.625 14.1667 58.625H53.8333C56.0877 58.625 58.2497 58.0126 59.8437 56.9226C61.4378 55.8325 62.3333 54.3541 62.3333 52.8125V33.4375C62.3333 31.8959 61.4378 30.4175 59.8437 29.3274C58.2497 28.2374 56.0877 27.625 53.8333 27.625H14.1667ZM34 4.375C29.4913 4.375 25.1673 5.59977 21.9792 7.77988C18.7911 9.95999 17 12.9169 17 16V23.75H51V16C51 12.9169 49.2089 9.95999 46.0208 7.77988C42.8327 5.59977 38.5087 4.375 34 4.375Z" fill="white"/>
</svg>
