<svg width="29" height="29" viewBox="0 0 29 29" fill="none" xmlns="http://www.w3.org/2000/svg">
<path d="M14.4999 0.214279C15.4862 0.214279 16.2857 1.01377 16.2857 1.99999V12.7143H26.9999C27.9862 12.7143 28.7857 13.5138 28.7857 14.5C28.7857 15.4862 27.9862 16.2857 26.9999 16.2857H16.2857V27C16.2857 27.9862 15.4862 28.7857 14.4999 28.7857C13.5137 28.7857 12.7142 27.9862 12.7142 27V16.2857H1.99995C1.01372 16.2857 0.214233 15.4862 0.214233 14.5C0.214233 13.5138 1.01372 12.7143 1.99995 12.7143H12.7142V1.99999C12.7142 1.01377 13.5137 0.214279 14.4999 0.214279Z" fill="black"/>
</svg>
