<svg width="250" height="250" viewBox="0 0 250 250" fill="none" xmlns="http://www.w3.org/2000/svg">
<path d="M31.25 31.25H62.5V62.5H31.25V31.25Z" fill="black"/>
<path d="M93.75 0V93.75H0V0H93.75ZM78.125 15.625H15.625V78.125H78.125V15.625Z" fill="black"/>
<path d="M62.5 187.5H31.25V218.75H62.5V187.5Z" fill="black"/>
<path d="M93.75 156.25V250H0V156.25H93.75ZM15.625 171.875V234.375H78.125V171.875H15.625Z" fill="black"/>
<path d="M187.5 31.25H218.75V62.5H187.5V31.25Z" fill="black"/>
<path d="M156.25 0V93.75H250V0H156.25ZM234.375 15.625V78.125H171.875V15.625H234.375Z" fill="black"/>
<path d="M125 15.625V0H140.625V31.25H125V62.5H109.375V15.625H125Z" fill="black"/>
<path d="M125 93.75V62.5H140.625V93.75H125Z" fill="black"/>
<path d="M93.75 125V109.375H109.375V93.75H125V125H140.625V109.375H218.75V125H156.25V140.625H109.375V125H93.75Z" fill="black"/>
<path d="M93.75 125V140.625H31.25V125H15.625V140.625H0V109.375H46.875V125H93.75Z" fill="black"/>
<path d="M250 140.625H234.375V109.375H250V140.625Z" fill="black"/>
<path d="M234.375 140.625H218.75V171.875H250V156.25H234.375V140.625Z" fill="black"/>
<path d="M171.875 140.625H203.125V156.25H187.5V171.875H171.875V140.625Z" fill="black"/>
<path d="M203.125 187.5V171.875H187.5V187.5H171.875V203.125H140.625V218.75H187.5V187.5H203.125Z" fill="black"/>
<path d="M203.125 187.5H250V203.125H218.75V218.75H203.125V187.5Z" fill="black"/>
<path d="M140.625 171.875V187.5H156.25V156.25H109.375V171.875H140.625Z" fill="black"/>
<path d="M109.375 187.5H125V234.375H187.5V250H109.375V187.5Z" fill="black"/>
<path d="M250 218.75V250H203.125V234.375H234.375V218.75H250Z" fill="black"/>
</svg>
