<svg width="50" height="50" viewBox="0 0 50 50" fill="none" xmlns="http://www.w3.org/2000/svg">
<path d="M6.25 0C2.79822 0 0 2.79822 0 6.25V43.75C0 47.2018 2.79822 50 6.25 50H43.75C47.2018 50 50 47.2018 50 43.75V6.25C50 2.79822 47.2018 0 43.75 0H6.25ZM7.8125 15.625H42.1875C43.0504 15.625 43.75 16.3246 43.75 17.1875C43.75 18.0504 43.0504 18.75 42.1875 18.75H7.8125C6.94955 18.75 6.25 18.0504 6.25 17.1875C6.25 16.3246 6.94955 15.625 7.8125 15.625ZM12.5 26.5625C12.5 25.6996 13.1996 25 14.0625 25H35.9375C36.8004 25 37.5 25.6996 37.5 26.5625C37.5 27.4254 36.8004 28.125 35.9375 28.125H14.0625C13.1996 28.125 12.5 27.4254 12.5 26.5625ZM18.75 35.9375C18.75 35.0746 19.4496 34.375 20.3125 34.375H29.6875C30.5504 34.375 31.25 35.0746 31.25 35.9375C31.25 36.8004 30.5504 37.5 29.6875 37.5H20.3125C19.4496 37.5 18.75 36.8004 18.75 35.9375Z" fill="white"/>
</svg>
