<svg width="32" height="32" viewBox="0 0 32 32" fill="none" xmlns="http://www.w3.org/2000/svg">
<path d="M13 2H19C19.5523 2 20 2.44772 20 3V5H12V3C12 2.44772 12.4477 2 13 2ZM22 5V3C22 1.34315 20.6569 0 19 0H13C11.3431 0 10 1.34315 10 3V5H5.01131C5.00451 4.99993 4.9977 4.99993 4.99088 5H3C2.44772 5 2 5.44772 2 6C2 6.55228 2.44772 7 3 7H4.07681L5.78232 28.319C5.94863 30.3978 7.68414 32 9.76958 32H22.2304C24.3159 32 26.0514 30.3978 26.2177 28.319L27.9232 7H29C29.5523 7 30 6.55228 30 6C30 5.44772 29.5523 5 29 5H27.0091C27.0023 4.99993 26.9955 4.99993 26.9887 5H22ZM25.9168 7L24.224 28.1595C24.1409 29.1989 23.2731 30 22.2304 30H9.76958C8.72686 30 7.85911 29.1989 7.77595 28.1595L6.08319 7H25.9168ZM10.9413 9.00173C11.4926 8.96929 11.9658 9.38995 11.9983 9.94128L12.9983 26.9413C13.0307 27.4926 12.6101 27.9658 12.0587 27.9983C11.5074 28.0307 11.0342 27.6101 11.0017 27.0587L10.0017 10.0587C9.9693 9.50739 10.3899 9.03416 10.9413 9.00173ZM21.0587 9.00173C21.6101 9.03416 22.0307 9.50739 21.9983 10.0587L20.9983 27.0587C20.9658 27.6101 20.4926 28.0307 19.9413 27.9983C19.3899 27.9658 18.9693 27.4926 19.0017 26.9413L20.0017 9.94128C20.0342 9.38995 20.5074 8.96929 21.0587 9.00173ZM16 9C16.5523 9 17 9.44771 17 10V27C17 27.5523 16.5523 28 16 28C15.4477 28 15 27.5523 15 27V10C15 9.44771 15.4477 9 16 9Z" fill="#DE1923"/>
</svg>
